<svg width="268" height="88" viewBox="0 0 268 88" fill="none" xmlns="http://www.w3.org/2000/svg">
<rect width="268" height="88"/>
<path d="M1.70703 16.2344C5.12891 15.9297 8.44531 15.7187 11.6562 15.6016C14.8672 15.4609 18.043 15.3906 21.1836 15.3906C24.3242 15.3906 27.7344 15.4727 31.4141 15.6367C35.0938 15.7773 39.1133 16 43.4727 16.3047L43.8945 17.043L40.5898 25.5859L39.4297 25.2344C39.5938 24.4141 39.7109 23.6523 39.7812 22.9492C39.875 22.2227 39.9219 21.543 39.9219 20.9102C39.9219 20.043 39.8516 19.2578 39.7109 18.5547C36.7344 18.3672 34.0508 18.2266 31.6602 18.1328C29.293 18.0391 27.1836 17.9805 25.332 17.957V60.6719C25.332 61.6328 25.4141 62.4531 25.5781 63.1328C25.7656 63.8125 26.0703 64.3867 26.4922 64.8555C26.9141 65.3242 27.4766 65.7109 28.1797 66.0156C28.8828 66.2969 29.7734 66.5312 30.8516 66.7188L30.5703 67.5625C29.1641 67.375 27.9453 67.2344 26.9141 67.1406C25.8828 67.0469 25.0156 67 24.3125 67C23.6562 67 22.918 67.0469 22.0977 67.1406C21.3008 67.2344 20.4102 67.375 19.4258 67.5625L19.2148 67.2109C19.6836 66.5312 19.918 65.2891 19.918 63.4844V17.957C18.1367 17.9805 16.0508 18.0391 13.6602 18.1328C11.2695 18.2266 8.53906 18.3672 5.46875 18.5547C5.32812 19.3281 5.25781 20.1484 5.25781 21.0156C5.25781 22.2578 5.42188 23.6641 5.75 25.2344L4.58984 25.5859L1.28516 17.043L1.70703 16.2344ZM66.0781 30.4375C71.4688 30.4375 75.6992 32.0898 78.7695 35.3945C81.8398 38.6992 83.375 43.3047 83.375 49.2109C83.375 52.6328 82.5898 55.8203 81.0195 58.7734C79.4492 61.7266 77.3164 64.082 74.6211 65.8398C71.9258 67.5742 69.0078 68.4414 65.8672 68.4414C60.4531 68.4414 56.2109 66.8125 53.1406 63.5547C50.0938 60.2734 48.5703 55.6328 48.5703 49.6328C48.5703 46.0703 49.3555 42.8242 50.9258 39.8945C52.4961 36.9414 54.6172 34.6328 57.2891 32.9688C59.9844 31.2812 62.9141 30.4375 66.0781 30.4375ZM65.375 32.8633C63.5234 32.8633 61.918 33.1328 60.5586 33.6719C59.1992 34.2109 58.1094 34.9375 57.2891 35.8516C56.4688 36.7656 55.8125 37.9258 55.3203 39.332C54.8281 40.7383 54.4883 42.1797 54.3008 43.6562C54.1367 45.1328 54.0547 46.8438 54.0547 48.7891C54.0547 51.8828 54.418 54.5898 55.1445 56.9102C55.8945 59.207 56.8906 61 58.1328 62.2891C59.375 63.5547 60.6992 64.4922 62.1055 65.1016C63.5117 65.6875 65 65.9805 66.5703 65.9805C68.3984 65.9805 69.9922 65.6992 71.3516 65.1367C72.7344 64.5508 73.8359 63.8008 74.6562 62.8867C75.4766 61.9492 76.1328 60.7773 76.625 59.3711C77.1172 57.9414 77.4453 56.5 77.6094 55.0469C77.7969 53.5938 77.8906 51.9414 77.8906 50.0898C77.8906 47.4883 77.6445 45.168 77.1523 43.1289C76.6602 41.0898 76.0039 39.4375 75.1836 38.1719C74.3867 36.9062 73.4258 35.8633 72.3008 35.043C71.1992 34.2227 70.0859 33.6602 68.9609 33.3555C67.8359 33.0273 66.6406 32.8633 65.375 32.8633ZM123.453 57.1914C123.453 58.7617 123.523 60.0742 123.664 61.1289C123.828 62.1602 124.098 62.9922 124.473 63.625C124.871 64.2578 125.41 64.7148 126.09 64.9961C126.77 65.2539 127.484 65.3828 128.234 65.3828C128.984 65.3828 129.453 65.3711 129.641 65.3477L129.816 65.9805C125.949 67.1289 122.387 67.7031 119.129 67.7031C118.66 66.4375 118.426 65.1016 118.426 63.6953V62.043C117.184 63.1445 116.023 64.0938 114.945 64.8906C113.891 65.6875 112.848 66.3555 111.816 66.8945C110.785 67.4102 109.73 67.7969 108.652 68.0547C107.574 68.3125 106.414 68.4414 105.172 68.4414C103.766 68.4414 102.359 68.2773 100.953 67.9492C99.5703 67.6211 98.3164 67.0352 97.1914 66.1914C96.0664 65.3477 95.1523 64.1992 94.4492 62.7461C93.7695 61.293 93.4297 59.4414 93.4297 57.1914V35.4648C93.4297 34.5273 93.0312 33.8125 92.2344 33.3203C91.4609 32.8281 90.3008 32.3711 88.7539 31.9492L89.0352 31.0703C90.3945 31.3516 92.1523 31.4922 94.3086 31.4922C95.6445 31.4922 97.2031 31.3047 98.9844 30.9297L99.1953 31.2812C98.7266 32.0078 98.4922 33.2617 98.4922 35.043V55.9258C98.4922 57.8711 98.7148 59.4766 99.1602 60.7422C99.6055 61.9844 100.203 62.9688 100.953 63.6953C101.703 64.4219 102.582 64.9258 103.59 65.207C104.598 65.4648 105.664 65.5938 106.789 65.5938C107.844 65.5938 108.816 65.4883 109.707 65.2773C110.621 65.043 111.535 64.6914 112.449 64.2227C113.363 63.7305 114.301 63.1094 115.262 62.3594C116.223 61.5859 117.277 60.6602 118.426 59.582V36.3438C118.426 35.6172 118.355 35.0312 118.215 34.5859C118.098 34.1172 117.852 33.7305 117.477 33.4258C117.125 33.0977 116.609 32.8164 115.93 32.582C115.25 32.3477 114.359 32.0898 113.258 31.8086L113.539 30.9297C114.875 31.1172 116.023 31.2578 116.984 31.3516C117.945 31.4453 118.719 31.4922 119.305 31.4922C120.641 31.4922 122.199 31.3047 123.98 30.9297L124.191 31.2812C123.699 31.9844 123.453 33.2383 123.453 35.043V57.1914ZM141.207 40.9492C141.207 39.3789 141.125 38.0664 140.961 37.0117C140.82 35.957 140.551 35.1133 140.152 34.4805C139.777 33.8477 139.25 33.4023 138.57 33.1445C137.891 32.8867 136.707 32.7695 135.02 32.793L134.879 32.1602C138.699 31.0117 142.25 30.4375 145.531 30.4375C146.023 31.6797 146.27 33.0156 146.27 34.4453V38.7695L146.41 38.9102C147.395 37.5508 148.332 36.3438 149.223 35.2891C150.137 34.2344 151.062 33.3555 152 32.6523C152.938 31.9492 153.922 31.4219 154.953 31.0703C155.984 30.6953 157.133 30.5078 158.398 30.5078C159.195 30.5078 160.074 30.5781 161.035 30.7188L158.996 39.2969L157.695 38.9102C157.695 38.5586 157.672 38.0781 157.625 37.4688C157.578 36.8594 157.508 36.2617 157.414 35.6758C157.344 35.0664 157.238 34.5508 157.098 34.1289C156.98 33.6836 156.84 33.4609 156.676 33.4609C155.996 33.4609 155.305 33.6133 154.602 33.918C153.922 34.1992 153.172 34.668 152.352 35.3242C151.531 35.9805 150.629 36.8359 149.645 37.8906C148.66 38.9453 147.535 40.2227 146.27 41.7227V62.1836C146.27 62.9336 146.328 63.543 146.445 64.0117C146.562 64.457 146.809 64.832 147.184 65.1367C147.559 65.4414 148.086 65.7109 148.766 65.9453C149.445 66.1797 150.336 66.4375 151.438 66.7188L151.156 67.5625C149.797 67.375 148.637 67.2344 147.676 67.1406C146.738 67.0469 145.977 67 145.391 67C144.055 67 142.496 67.1875 140.715 67.5625L140.504 67.2109C140.973 66.5312 141.207 65.2891 141.207 63.4844V40.9492ZM189.758 67.7031L186.945 67C184.648 59.6406 182.152 52.668 179.457 46.082C176.785 39.4727 173.551 32.043 169.754 23.793C169.027 22.1758 168.277 21.0156 167.504 20.3125C166.73 19.6094 165.922 19.2578 165.078 19.2578C164.258 19.2578 163.273 19.3047 162.125 19.3984L161.773 18.6953C165.711 16.7266 169.109 15.7422 171.969 15.7422C173.234 18.2266 174.441 20.7227 175.59 23.2305C176.738 25.7148 177.945 28.5039 179.211 31.5977C180.5 34.6914 181.473 37.0586 182.129 38.6992C182.785 40.3164 183.875 43.0938 185.398 47.0312C186.945 50.9688 187.918 53.4531 188.316 54.4844C189.043 56.1953 189.5 58.082 189.688 60.1445H190.285C190.355 59.9805 190.613 59.1602 191.059 57.6836C191.504 56.207 192.031 54.7305 192.641 53.2539L205.754 20.0664C205.895 19.1758 205.496 18.5547 204.559 18.2031C203.645 17.8516 202.168 17.7695 200.129 17.957L199.918 17.3242C202.941 16.457 206.176 16.0234 209.621 16.0234C209.809 16.0234 209.938 16.1055 210.008 16.2695C210.102 16.4102 210.125 16.5625 210.078 16.7266C209.82 17.5938 209.539 18.4844 209.234 19.3984C208.953 20.3125 202.461 36.4141 189.758 67.7031ZM259.895 67H258.453C256.859 64.8438 252.289 59.0078 244.742 49.4922C237.195 39.9531 231.805 33.0508 228.57 28.7852C227.164 26.957 225.816 24.8125 224.527 22.3516L224.316 22.4922V62.4648C224.316 63.3555 224.598 64.0469 225.16 64.5391C225.746 65.0312 226.379 65.3711 227.059 65.5586C227.762 65.7227 228.723 65.9102 229.941 66.1211C231.16 66.332 231.875 66.4609 232.086 66.5078V67.2109C227.656 66.9297 224.105 66.9297 221.434 67.2109C221.293 66.5781 221.223 65.957 221.223 65.3477V24.8828C221.152 23.2188 220.859 21.7305 220.344 20.418C219.664 18.5898 218.105 17.7695 215.668 17.957V17.2539C218.949 16.4336 222.172 16.0234 225.336 16.0234L251.809 49.8789C253.051 51.4492 254.035 52.8672 254.762 54.1328C255.512 55.375 256.238 56.9336 256.941 58.8086V22.2109C256.941 20.5703 256.32 19.4102 255.078 18.7305C253.859 18.0273 251.938 17.7695 249.312 17.957L249.137 17.2539C252.184 16.5039 255.57 16.0938 259.297 16.0234C259.695 16.6328 259.895 17.2539 259.895 17.8867V67Z" fill="black"/>
</svg>
